<svg width="25" height="25" viewBox="0 0 25 25" fill="none" xmlns="http://www.w3.org/2000/svg">
<mask id="path-1-outside-1_2_149" maskUnits="userSpaceOnUse" x="4.79224" y="4.20825" width="16" height="16" fill="black">
<rect fill="white" x="4.79224" y="4.20825" width="16" height="16"/>
<path d="M18.7023 16.2397C19.3509 15.2064 19.7174 14.0124 19.7824 12.7988C19.8483 11.568 19.5812 10.3339 19.0353 9.22891C18.5084 8.16194 17.703 7.24963 16.7357 6.55408C15.7453 5.8417 14.5808 5.4162 13.3714 5.26274C13.0833 5.22628 12.7927 5.20865 12.5022 5.20825C10.7805 5.21186 9.12052 5.82247 7.80081 6.91468C6.54172 7.9568 5.65155 9.45248 5.34768 11.0511C5.1905 11.8797 5.21232 12.7095 5.21232 13.5469V16.8696C5.21232 17.6236 5.20464 18.3781 5.21232 19.1317C5.21232 19.1437 5.21232 19.1558 5.21232 19.1678C5.21232 19.4362 5.44183 19.6642 5.71297 19.6642H11.4993C11.8824 19.6642 12.2658 19.6706 12.6489 19.6626C13.8789 19.6366 15.0976 19.302 16.1615 18.6886C17.1931 18.094 18.0716 17.2434 18.7019 16.2393L18.7023 16.2397ZM15.4528 17.9445C15.3311 18.0091 15.2079 18.07 15.0826 18.1273C15.0491 18.1425 15.0156 18.1577 14.9816 18.1721C14.9768 18.1741 14.9667 18.1785 14.9553 18.1833C14.9372 18.1906 14.9073 18.203 14.8967 18.2074C14.858 18.2226 14.8192 18.2378 14.7804 18.2523C14.5189 18.3508 14.251 18.4334 13.9791 18.4987C13.8369 18.5331 13.6934 18.5628 13.5496 18.5876C13.4841 18.5988 13.4182 18.6088 13.3524 18.6189C13.3116 18.6241 13.2704 18.6289 13.2295 18.6329C12.7616 18.6822 12.2905 18.671 11.8209 18.671H6.21482V13.9648C6.21482 13.2848 6.1825 12.5937 6.23462 11.915C6.2419 11.82 6.25119 11.725 6.2625 11.6305C6.26412 11.6185 6.26534 11.6061 6.26695 11.594C6.26695 11.594 6.26695 11.594 6.26695 11.5936C6.27544 11.5375 6.28392 11.4818 6.29362 11.4258C6.32715 11.2322 6.36878 11.0399 6.41929 10.85C6.46899 10.6621 6.52717 10.4766 6.59344 10.2939C6.62455 10.2073 6.65769 10.1216 6.69285 10.0366C6.69042 10.0423 6.68799 10.0475 6.68476 10.0539C6.69243 10.0375 6.69931 10.0202 6.70658 10.0034C6.7288 9.95291 6.75144 9.90323 6.77447 9.85355C6.9365 9.50737 7.12844 9.17522 7.34744 8.8615C7.39876 8.78778 7.45169 8.71486 7.50624 8.64354C7.50261 8.64795 7.50018 8.65075 7.49574 8.65596C7.51028 8.63873 7.52402 8.6203 7.53817 8.60267C7.56928 8.56381 7.6008 8.52535 7.63272 8.48688C7.75758 8.33784 7.88931 8.194 8.0267 8.05577C8.16085 7.92115 8.30106 7.79173 8.44612 7.66873C8.51279 7.61223 8.58068 7.55774 8.64937 7.50365C8.64331 7.50766 8.63887 7.51127 8.63159 7.51648C8.64169 7.50926 8.65139 7.50165 8.66109 7.49444C8.66351 7.49244 8.66553 7.49083 8.66795 7.48883C8.67442 7.48362 8.6825 7.47801 8.68897 7.4736C8.6918 7.4716 8.69422 7.4696 8.69705 7.46759C8.74069 7.43514 8.78514 7.40309 8.82958 7.37184C9.14315 7.15107 9.4757 6.95675 9.8224 6.79208C9.902 6.75401 9.98281 6.71835 10.064 6.68309C10.0786 6.67709 10.0935 6.67107 10.1081 6.66547C10.1598 6.64503 10.2115 6.625 10.2636 6.60577C10.4471 6.53805 10.633 6.47836 10.8217 6.42667C11.0124 6.37458 11.2051 6.33051 11.3995 6.29485C11.4928 6.27762 11.5878 6.26761 11.6811 6.24958C11.5138 6.28163 11.6755 6.25078 11.7187 6.24557C11.7761 6.23916 11.8335 6.23315 11.8908 6.22834C12.0941 6.21031 12.2982 6.2019 12.5022 6.2015C12.7911 6.2023 13.0788 6.22153 13.3657 6.25599C13.3706 6.25679 13.3754 6.25719 13.3803 6.25799C13.4134 6.2628 13.4461 6.26801 13.4789 6.27322C13.5536 6.28524 13.6284 6.29886 13.7027 6.31368C13.8413 6.34093 13.9787 6.37258 14.1153 6.40864C14.3896 6.48076 14.6592 6.57011 14.9222 6.67628C14.9287 6.67909 14.9355 6.68149 14.9424 6.6843C14.9638 6.69351 14.9852 6.70273 15.0067 6.71194C15.0741 6.74159 15.1408 6.77244 15.2071 6.8041C15.3311 6.86379 15.4532 6.9271 15.5732 6.99401C15.816 7.12943 16.0504 7.27968 16.2746 7.44396C16.2985 7.46158 16.3223 7.47921 16.3458 7.49684C16.3498 7.50005 16.3538 7.50325 16.3579 7.50606C16.4116 7.54813 16.4642 7.591 16.5167 7.63467C16.6246 7.72482 16.7296 7.81818 16.8319 7.91474C17.0295 8.10144 17.2157 8.29977 17.3895 8.50892C17.4125 8.53697 17.4355 8.56501 17.4582 8.59306C17.4622 8.59827 17.4731 8.61189 17.4832 8.62471C17.4945 8.63914 17.5079 8.65676 17.5135 8.66398C17.5354 8.69282 17.5568 8.72207 17.5782 8.75132C17.661 8.86511 17.7402 8.9813 17.8158 9.0999C17.9625 9.33068 18.0954 9.57028 18.2126 9.81669C18.2421 9.87879 18.2708 9.94089 18.2982 10.0038C18.2991 10.0054 18.2999 10.007 18.3003 10.009C18.3144 10.0443 18.329 10.0787 18.3431 10.114C18.394 10.2426 18.4409 10.3728 18.4833 10.5042C18.5698 10.7699 18.6389 11.0411 18.691 11.3156C18.7043 11.3849 18.7161 11.4546 18.7274 11.5243C18.7326 11.5572 18.7367 11.59 18.7419 11.6225C18.7144 11.4562 18.7399 11.6085 18.7443 11.6457C18.7613 11.788 18.7734 11.931 18.7811 12.074C18.7969 12.3681 18.7936 12.6634 18.771 12.9571C18.7658 13.0236 18.7597 13.0901 18.7524 13.1566C18.7488 13.1899 18.7452 13.2227 18.7411 13.256C18.7403 13.2636 18.7391 13.2712 18.7383 13.2792C18.7165 13.4187 18.693 13.5577 18.6639 13.6959C18.6053 13.9732 18.5286 14.2464 18.4352 14.5137C18.4138 14.5746 18.3916 14.6351 18.3686 14.6952C18.3568 14.7252 18.3451 14.7553 18.3334 14.7849C18.3273 14.7997 18.2978 14.8703 18.2946 14.8787C18.2918 14.8855 18.289 14.8915 18.2877 14.8943C18.2728 14.928 18.2578 14.9612 18.2425 14.9945C18.2138 15.0566 18.1839 15.1183 18.1532 15.1796C18.0287 15.4276 17.8889 15.668 17.7346 15.8988C17.659 16.0117 17.5798 16.1227 17.4978 16.2309C17.4949 16.2349 17.4917 16.2389 17.4885 16.2429C17.4699 16.2662 17.4517 16.289 17.4331 16.3122C17.3903 16.3647 17.3466 16.4168 17.3022 16.4685C17.1216 16.6772 16.9276 16.8752 16.7228 17.0603C16.6217 17.1516 16.5183 17.2398 16.412 17.3247C16.3902 17.3424 16.368 17.3596 16.3458 17.3772C16.3405 17.3812 16.3353 17.3852 16.3304 17.3888C16.2722 17.4325 16.2132 17.475 16.1534 17.5166C15.9292 17.6733 15.6952 17.8163 15.4532 17.9449L15.4528 17.9445Z"/>
</mask>
<path d="M18.7023 16.2397C19.3509 15.2064 19.7174 14.0124 19.7824 12.7988C19.8483 11.568 19.5812 10.3339 19.0353 9.22891C18.5084 8.16194 17.703 7.24963 16.7357 6.55408C15.7453 5.8417 14.5808 5.4162 13.3714 5.26274C13.0833 5.22628 12.7927 5.20865 12.5022 5.20825C10.7805 5.21186 9.12052 5.82247 7.80081 6.91468C6.54172 7.9568 5.65155 9.45248 5.34768 11.0511C5.1905 11.8797 5.21232 12.7095 5.21232 13.5469V16.8696C5.21232 17.6236 5.20464 18.3781 5.21232 19.1317C5.21232 19.1437 5.21232 19.1558 5.21232 19.1678C5.21232 19.4362 5.44183 19.6642 5.71297 19.6642H11.4993C11.8824 19.6642 12.2658 19.6706 12.6489 19.6626C13.8789 19.6366 15.0976 19.302 16.1615 18.6886C17.1931 18.094 18.0716 17.2434 18.7019 16.2393L18.7023 16.2397ZM15.4528 17.9445C15.3311 18.0091 15.2079 18.07 15.0826 18.1273C15.0491 18.1425 15.0156 18.1577 14.9816 18.1721C14.9768 18.1741 14.9667 18.1785 14.9553 18.1833C14.9372 18.1906 14.9073 18.203 14.8967 18.2074C14.858 18.2226 14.8192 18.2378 14.7804 18.2523C14.5189 18.3508 14.251 18.4334 13.9791 18.4987C13.8369 18.5331 13.6934 18.5628 13.5496 18.5876C13.4841 18.5988 13.4182 18.6088 13.3524 18.6189C13.3116 18.6241 13.2704 18.6289 13.2295 18.6329C12.7616 18.6822 12.2905 18.671 11.8209 18.671H6.21482V13.9648C6.21482 13.2848 6.1825 12.5937 6.23462 11.915C6.2419 11.82 6.25119 11.725 6.2625 11.6305C6.26412 11.6185 6.26534 11.6061 6.26695 11.594C6.26695 11.594 6.26695 11.594 6.26695 11.5936C6.27544 11.5375 6.28392 11.4818 6.29362 11.4258C6.32715 11.2322 6.36878 11.0399 6.41929 10.85C6.46899 10.6621 6.52717 10.4766 6.59344 10.2939C6.62455 10.2073 6.65769 10.1216 6.69285 10.0366C6.69042 10.0423 6.68799 10.0475 6.68476 10.0539C6.69243 10.0375 6.69931 10.0202 6.70658 10.0034C6.7288 9.95291 6.75144 9.90323 6.77447 9.85355C6.9365 9.50737 7.12844 9.17522 7.34744 8.8615C7.39876 8.78778 7.45169 8.71486 7.50624 8.64354C7.50261 8.64795 7.50018 8.65075 7.49574 8.65596C7.51028 8.63873 7.52402 8.6203 7.53817 8.60267C7.56928 8.56381 7.6008 8.52535 7.63272 8.48688C7.75758 8.33784 7.88931 8.194 8.0267 8.05577C8.16085 7.92115 8.30106 7.79173 8.44612 7.66873C8.51279 7.61223 8.58068 7.55774 8.64937 7.50365C8.64331 7.50766 8.63887 7.51127 8.63159 7.51648C8.64169 7.50926 8.65139 7.50165 8.66109 7.49444C8.66351 7.49244 8.66553 7.49083 8.66795 7.48883C8.67442 7.48362 8.6825 7.47801 8.68897 7.4736C8.6918 7.4716 8.69422 7.4696 8.69705 7.46759C8.74069 7.43514 8.78514 7.40309 8.82958 7.37184C9.14315 7.15107 9.4757 6.95675 9.8224 6.79208C9.902 6.75401 9.98281 6.71835 10.064 6.68309C10.0786 6.67709 10.0935 6.67107 10.1081 6.66547C10.1598 6.64503 10.2115 6.625 10.2636 6.60577C10.4471 6.53805 10.633 6.47836 10.8217 6.42667C11.0124 6.37458 11.2051 6.33051 11.3995 6.29485C11.4928 6.27762 11.5878 6.26761 11.6811 6.24958C11.5138 6.28163 11.6755 6.25078 11.7187 6.24557C11.7761 6.23916 11.8335 6.23315 11.8908 6.22834C12.0941 6.21031 12.2982 6.2019 12.5022 6.2015C12.7911 6.2023 13.0788 6.22153 13.3657 6.25599C13.3706 6.25679 13.3754 6.25719 13.3803 6.25799C13.4134 6.2628 13.4461 6.26801 13.4789 6.27322C13.5536 6.28524 13.6284 6.29886 13.7027 6.31368C13.8413 6.34093 13.9787 6.37258 14.1153 6.40864C14.3896 6.48076 14.6592 6.57011 14.9222 6.67628C14.9287 6.67909 14.9355 6.68149 14.9424 6.6843C14.9638 6.69351 14.9852 6.70273 15.0067 6.71194C15.0741 6.74159 15.1408 6.77244 15.2071 6.8041C15.3311 6.86379 15.4532 6.9271 15.5732 6.99401C15.816 7.12943 16.0504 7.27968 16.2746 7.44396C16.2985 7.46158 16.3223 7.47921 16.3458 7.49684C16.3498 7.50005 16.3538 7.50325 16.3579 7.50606C16.4116 7.54813 16.4642 7.591 16.5167 7.63467C16.6246 7.72482 16.7296 7.81818 16.8319 7.91474C17.0295 8.10144 17.2157 8.29977 17.3895 8.50892C17.4125 8.53697 17.4355 8.56501 17.4582 8.59306C17.4622 8.59827 17.4731 8.61189 17.4832 8.62471C17.4945 8.63914 17.5079 8.65676 17.5135 8.66398C17.5354 8.69282 17.5568 8.72207 17.5782 8.75132C17.661 8.86511 17.7402 8.9813 17.8158 9.0999C17.9625 9.33068 18.0954 9.57028 18.2126 9.81669C18.2421 9.87879 18.2708 9.94089 18.2982 10.0038C18.2991 10.0054 18.2999 10.007 18.3003 10.009C18.3144 10.0443 18.329 10.0787 18.3431 10.114C18.394 10.2426 18.4409 10.3728 18.4833 10.5042C18.5698 10.7699 18.6389 11.0411 18.691 11.3156C18.7043 11.3849 18.7161 11.4546 18.7274 11.5243C18.7326 11.5572 18.7367 11.59 18.7419 11.6225C18.7144 11.4562 18.7399 11.6085 18.7443 11.6457C18.7613 11.788 18.7734 11.931 18.7811 12.074C18.7969 12.3681 18.7936 12.6634 18.771 12.9571C18.7658 13.0236 18.7597 13.0901 18.7524 13.1566C18.7488 13.1899 18.7452 13.2227 18.7411 13.256C18.7403 13.2636 18.7391 13.2712 18.7383 13.2792C18.7165 13.4187 18.693 13.5577 18.6639 13.6959C18.6053 13.9732 18.5286 14.2464 18.4352 14.5137C18.4138 14.5746 18.3916 14.6351 18.3686 14.6952C18.3568 14.7252 18.3451 14.7553 18.3334 14.7849C18.3273 14.7997 18.2978 14.8703 18.2946 14.8787C18.2918 14.8855 18.289 14.8915 18.2877 14.8943C18.2728 14.928 18.2578 14.9612 18.2425 14.9945C18.2138 15.0566 18.1839 15.1183 18.1532 15.1796C18.0287 15.4276 17.8889 15.668 17.7346 15.8988C17.659 16.0117 17.5798 16.1227 17.4978 16.2309C17.4949 16.2349 17.4917 16.2389 17.4885 16.2429C17.4699 16.2662 17.4517 16.289 17.4331 16.3122C17.3903 16.3647 17.3466 16.4168 17.3022 16.4685C17.1216 16.6772 16.9276 16.8752 16.7228 17.0603C16.6217 17.1516 16.5183 17.2398 16.412 17.3247C16.3902 17.3424 16.368 17.3596 16.3458 17.3772C16.3405 17.3812 16.3353 17.3852 16.3304 17.3888C16.2722 17.4325 16.2132 17.475 16.1534 17.5166C15.9292 17.6733 15.6952 17.8163 15.4532 17.9449L15.4528 17.9445Z" fill="#AFB9CA"/>
<path d="M18.7023 16.2397C19.3509 15.2064 19.7174 14.0124 19.7824 12.7988C19.8483 11.568 19.5812 10.3339 19.0353 9.22891C18.5084 8.16194 17.703 7.24963 16.7357 6.55408C15.7453 5.8417 14.5808 5.4162 13.3714 5.26274C13.0833 5.22628 12.7927 5.20865 12.5022 5.20825C10.7805 5.21186 9.12052 5.82247 7.80081 6.91468C6.54172 7.9568 5.65155 9.45248 5.34768 11.0511C5.1905 11.8797 5.21232 12.7095 5.21232 13.5469V16.8696C5.21232 17.6236 5.20464 18.3781 5.21232 19.1317C5.21232 19.1437 5.21232 19.1558 5.21232 19.1678C5.21232 19.4362 5.44183 19.6642 5.71297 19.6642H11.4993C11.8824 19.6642 12.2658 19.6706 12.6489 19.6626C13.8789 19.6366 15.0976 19.302 16.1615 18.6886C17.1931 18.094 18.0716 17.2434 18.7019 16.2393L18.7023 16.2397ZM15.4528 17.9445C15.3311 18.0091 15.2079 18.07 15.0826 18.1273C15.0491 18.1425 15.0156 18.1577 14.9816 18.1721C14.9768 18.1741 14.9667 18.1785 14.9553 18.1833C14.9372 18.1906 14.9073 18.203 14.8967 18.2074C14.858 18.2226 14.8192 18.2378 14.7804 18.2523C14.5189 18.3508 14.251 18.4334 13.9791 18.4987C13.8369 18.5331 13.6934 18.5628 13.5496 18.5876C13.4841 18.5988 13.4182 18.6088 13.3524 18.6189C13.3116 18.6241 13.2704 18.6289 13.2295 18.6329C12.7616 18.6822 12.2905 18.671 11.8209 18.671H6.21482V13.9648C6.21482 13.2848 6.1825 12.5937 6.23462 11.915C6.2419 11.82 6.25119 11.725 6.2625 11.6305C6.26412 11.6185 6.26534 11.6061 6.26695 11.594C6.26695 11.594 6.26695 11.594 6.26695 11.5936C6.27544 11.5375 6.28392 11.4818 6.29362 11.4258C6.32715 11.2322 6.36878 11.0399 6.41929 10.85C6.46899 10.6621 6.52717 10.4766 6.59344 10.2939C6.62455 10.2073 6.65769 10.1216 6.69285 10.0366C6.69042 10.0423 6.68799 10.0475 6.68476 10.0539C6.69243 10.0375 6.69931 10.0202 6.70658 10.0034C6.7288 9.95291 6.75144 9.90323 6.77447 9.85355C6.9365 9.50737 7.12844 9.17522 7.34744 8.8615C7.39876 8.78778 7.45169 8.71486 7.50624 8.64354C7.50261 8.64795 7.50018 8.65075 7.49574 8.65596C7.51028 8.63873 7.52402 8.6203 7.53817 8.60267C7.56928 8.56381 7.6008 8.52535 7.63272 8.48688C7.75758 8.33784 7.88931 8.194 8.0267 8.05577C8.16085 7.92115 8.30106 7.79173 8.44612 7.66873C8.51279 7.61223 8.58068 7.55774 8.64937 7.50365C8.64331 7.50766 8.63887 7.51127 8.63159 7.51648C8.64169 7.50926 8.65139 7.50165 8.66109 7.49444C8.66351 7.49244 8.66553 7.49083 8.66795 7.48883C8.67442 7.48362 8.6825 7.47801 8.68897 7.4736C8.6918 7.4716 8.69422 7.4696 8.69705 7.46759C8.74069 7.43514 8.78514 7.40309 8.82958 7.37184C9.14315 7.15107 9.4757 6.95675 9.8224 6.79208C9.902 6.75401 9.98281 6.71835 10.064 6.68309C10.0786 6.67709 10.0935 6.67107 10.1081 6.66547C10.1598 6.64503 10.2115 6.625 10.2636 6.60577C10.4471 6.53805 10.633 6.47836 10.8217 6.42667C11.0124 6.37458 11.2051 6.33051 11.3995 6.29485C11.4928 6.27762 11.5878 6.26761 11.6811 6.24958C11.5138 6.28163 11.6755 6.25078 11.7187 6.24557C11.7761 6.23916 11.8335 6.23315 11.8908 6.22834C12.0941 6.21031 12.2982 6.2019 12.5022 6.2015C12.7911 6.2023 13.0788 6.22153 13.3657 6.25599C13.3706 6.25679 13.3754 6.25719 13.3803 6.25799C13.4134 6.2628 13.4461 6.26801 13.4789 6.27322C13.5536 6.28524 13.6284 6.29886 13.7027 6.31368C13.8413 6.34093 13.9787 6.37258 14.1153 6.40864C14.3896 6.48076 14.6592 6.57011 14.9222 6.67628C14.9287 6.67909 14.9355 6.68149 14.9424 6.6843C14.9638 6.69351 14.9852 6.70273 15.0067 6.71194C15.0741 6.74159 15.1408 6.77244 15.2071 6.8041C15.3311 6.86379 15.4532 6.9271 15.5732 6.99401C15.816 7.12943 16.0504 7.27968 16.2746 7.44396C16.2985 7.46158 16.3223 7.47921 16.3458 7.49684C16.3498 7.50005 16.3538 7.50325 16.3579 7.50606C16.4116 7.54813 16.4642 7.591 16.5167 7.63467C16.6246 7.72482 16.7296 7.81818 16.8319 7.91474C17.0295 8.10144 17.2157 8.29977 17.3895 8.50892C17.4125 8.53697 17.4355 8.56501 17.4582 8.59306C17.4622 8.59827 17.4731 8.61189 17.4832 8.62471C17.4945 8.63914 17.5079 8.65676 17.5135 8.66398C17.5354 8.69282 17.5568 8.72207 17.5782 8.75132C17.661 8.86511 17.7402 8.9813 17.8158 9.0999C17.9625 9.33068 18.0954 9.57028 18.2126 9.81669C18.2421 9.87879 18.2708 9.94089 18.2982 10.0038C18.2991 10.0054 18.2999 10.007 18.3003 10.009C18.3144 10.0443 18.329 10.0787 18.3431 10.114C18.394 10.2426 18.4409 10.3728 18.4833 10.5042C18.5698 10.7699 18.6389 11.0411 18.691 11.3156C18.7043 11.3849 18.7161 11.4546 18.7274 11.5243C18.7326 11.5572 18.7367 11.59 18.7419 11.6225C18.7144 11.4562 18.7399 11.6085 18.7443 11.6457C18.7613 11.788 18.7734 11.931 18.7811 12.074C18.7969 12.3681 18.7936 12.6634 18.771 12.9571C18.7658 13.0236 18.7597 13.0901 18.7524 13.1566C18.7488 13.1899 18.7452 13.2227 18.7411 13.256C18.7403 13.2636 18.7391 13.2712 18.7383 13.2792C18.7165 13.4187 18.693 13.5577 18.6639 13.6959C18.6053 13.9732 18.5286 14.2464 18.4352 14.5137C18.4138 14.5746 18.3916 14.6351 18.3686 14.6952C18.3568 14.7252 18.3451 14.7553 18.3334 14.7849C18.3273 14.7997 18.2978 14.8703 18.2946 14.8787C18.2918 14.8855 18.289 14.8915 18.2877 14.8943C18.2728 14.928 18.2578 14.9612 18.2425 14.9945C18.2138 15.0566 18.1839 15.1183 18.1532 15.1796C18.0287 15.4276 17.8889 15.668 17.7346 15.8988C17.659 16.0117 17.5798 16.1227 17.4978 16.2309C17.4949 16.2349 17.4917 16.2389 17.4885 16.2429C17.4699 16.2662 17.4517 16.289 17.4331 16.3122C17.3903 16.3647 17.3466 16.4168 17.3022 16.4685C17.1216 16.6772 16.9276 16.8752 16.7228 17.0603C16.6217 17.1516 16.5183 17.2398 16.412 17.3247C16.3902 17.3424 16.368 17.3596 16.3458 17.3772C16.3405 17.3812 16.3353 17.3852 16.3304 17.3888C16.2722 17.4325 16.2132 17.475 16.1534 17.5166C15.9292 17.6733 15.6952 17.8163 15.4532 17.9449L15.4528 17.9445Z" stroke="#AFB9CA" stroke-width="0.74701" stroke-linejoin="round" mask="url(#path-1-outside-1_2_149)"/>
<path d="M11.699 12.6236C11.5935 12.1806 11.8702 11.7367 12.317 11.6321C12.7638 11.5276 13.2114 11.8019 13.3169 12.2449C13.4223 12.6879 13.1456 13.1318 12.6989 13.2364C12.2521 13.3409 11.8044 13.0666 11.699 12.6236Z" fill="#AFB9CA"/>
<path d="M15.4227 13.1973C14.9986 13.0231 14.7972 12.541 14.9729 12.1205C15.1486 11.7 15.6348 11.5003 16.0589 11.6745C16.483 11.8487 16.6844 12.3308 16.5087 12.7513C16.333 13.1718 15.8468 13.3715 15.4227 13.1973Z" fill="#AFB9CA"/>
<path d="M9.25341 13.2603C8.79436 13.2603 8.42224 12.8913 8.42224 12.4361C8.42224 11.9809 8.79436 11.6119 9.25341 11.6119C9.71246 11.6119 10.0846 11.9809 10.0846 12.4361C10.0846 12.8913 9.71246 13.2603 9.25341 13.2603Z" fill="#AFB9CA"/>
</svg>
